<svg xmlns="http://www.w3.org/2000/svg" xmlns:xlink="http://www.w3.org/1999/xlink" version="1.1" viewBox="366 0 768 186"><svg xml:space="preserve" width="1500" height="186" data-version="2" data-id="lg_hmimVTXfbhWZEFDM0k" viewBox="0 0 768 186" x="0" y="0"><rect width="100%" height="100%" fill="transparent"/><path fill="#fff" d="M106.58 6.808a9.26 9.26 0 0 1 17.36 3.458 9.26 9.26 0 0 0 15.018 6.212c7.054-5.688 17.248 1.138 14.7 9.83a9.26 9.26 0 0 0 11.49 11.49 9.26 9.26 0 0 1 9.83 14.7 9.26 9.26 0 0 0 6.212 15.018 9.26 9.26 0 0 1 3.458 17.36 9.26 9.26 0 0 0 0 16.247 9.26 9.26 0 0 1-3.458 17.361 9.26 9.26 0 0 0-6.212 15.018c5.688 7.054-1.138 17.248-9.83 14.7a9.26 9.26 0 0 0-11.49 11.49 9.26 9.26 0 0 1-14.7 9.83 9.26 9.26 0 0 0-15.018 6.212 9.26 9.26 0 0 1-17.36 3.458 9.26 9.26 0 0 0-16.247 0 9.26 9.26 0 0 1-17.361-3.458 9.26 9.26 0 0 0-15.018-6.212 9.26 9.26 0 0 1-14.7-9.83 9.26 9.26 0 0 0-11.49-11.49 9.26 9.26 0 0 1-9.83-14.7 9.26 9.26 0 0 0-6.212-15.018 9.26 9.26 0 0 1-3.458-17.36 9.26 9.26 0 0 0 0-16.247 9.26 9.26 0 0 1 3.458-17.361 9.26 9.26 0 0 0 6.212-15.018c-5.688-7.054 1.138-17.248 9.83-14.7a9.26 9.26 0 0 0 11.49-11.49 9.26 9.26 0 0 1 14.7-9.83 9.26 9.26 0 0 0 15.018-6.212 9.26 9.26 0 0 1 17.36-3.458 9.26 9.26 0 0 0 16.247 0"/><path fill="#130912" d="M97.67 27.687c35.583 0 64.525 28.958 64.525 64.526s-28.942 64.526-64.526 64.526-64.525-28.958-64.525-64.526 28.958-64.526 64.525-64.526m0-6.295c-39.113 0-70.82 31.707-70.82 70.821s31.707 70.821 70.82 70.821 70.821-31.707 70.821-70.821-31.707-70.821-70.82-70.821"/><path fill="#130912" d="M97.67 84.344a7.869 7.869 0 1 0 0 15.738 7.869 7.869 0 0 0 0-15.738m0 51.935a7.869 7.869 0 1 0 0 15.738 7.869 7.869 0 0 0 0-15.738m33.584-61.85a6.295 6.295 0 1 0 0 12.59 6.295 6.295 0 0 0 0-12.59m-72.08-21.561a4.721 4.721 0 1 0 0 9.443 4.721 4.721 0 0 0 0-9.443"/><path fill="#130912" d="m62.983 126.522 2.345 2.187 1.275 1.197 1.526 1.164 1.763 1.354c.63.487 1.416.912 2.172 1.416a47.214 47.214 0 0 0 12.04 5.508c4.91 1.558 10.701 2.33 17.154 1.968 1.73 0 3.195-.33 4.8-.536 1.59-.141 3.242-.66 4.91-1.038a51.935 51.935 0 0 0 9.915-3.793 50.362 50.362 0 0 0 20.617-19.987l1.369-2.739c.472-.928.944-1.841 1.259-2.833l1.102-2.911c.362-.976.566-1.999.865-3.006.63-1.999.882-4.092 1.244-6.185.22-1.039.204-2.109.299-3.18.047-1.022.157-2.203.157-3.1l-.126-3.32-.063-1.669-.22-1.573-.44-3.148q-.347-1.558-.756-3.132c-.41-2.124-1.29-4.107-1.968-6.17-1.715-3.95-3.682-7.868-6.342-11.268-1.212-1.81-2.754-3.336-4.155-4.973-.724-.787-1.574-1.48-2.329-2.219-.787-.724-1.558-1.495-2.44-2.109a50.362 50.362 0 0 0-22.694-10.387 51.935 51.935 0 0 0-23.48 1.18 51.149 51.149 0 0 0-18.666 10.057 51.935 51.935 0 0 0-11.567 13.85c-.693 1.149-1.196 2.36-1.779 3.478q-.44.834-.818 1.684l-.63 1.668c-.409 1.102-.85 2.14-1.164 3.163l-.787 2.975c-.598 1.857-.74 3.604-1.023 5.099-.3 1.48-.362 2.77-.41 3.808l-.204 3.211.126-3.21c.031-1.04.063-2.33.33-3.825.268-1.495.362-3.258.913-5.146l.724-2.99c.315-1.055.724-2.11 1.102-3.227l.614-1.7q.362-.85.787-1.715c.55-1.133 1.038-2.36 1.73-3.557a51.935 51.935 0 0 1 11.41-14.321A51.935 51.935 0 0 1 82.357 41.82a53.51 53.51 0 0 1 24.237-1.731c8.451 1.227 16.808 4.879 23.953 10.34.944.63 1.763 1.416 2.597 2.156.834.74 1.731 1.463 2.518 2.282 1.51 1.684 3.18 3.257 4.485 5.146a53.51 53.51 0 0 1 6.988 11.804c.787 2.156 1.731 4.249 2.235 6.515q.472 1.653.881 3.337l.55 3.462.284 1.731.095 1.653.204 3.305c.032 1.306-.063 2.345-.094 3.51-.063 1.148-.032 2.281-.236 3.414-.33 2.25-.567 4.501-1.196 6.689-.3 1.086-.504 2.203-.85 3.258l-1.133 3.179q-.52 1.59-1.29 3.084l-1.417 3.006-1.668 2.833a55.083 55.083 0 0 1-20.35 19.42 56.657 56.657 0 0 1-10.827 4.439c-1.826.472-3.589 1.054-5.462 1.275-1.84.283-3.73.677-5.35.692-6.894.551-13.504-.157-18.98-1.778a53.51 53.51 0 0 1-13.63-5.87c-.88-.551-1.73-.992-2.486-1.558l-2.14-1.574-1.842-1.37-1.306-1.164-2.392-2.14z"/><path fill="#130912" d="m74.125 115.395 1.621 1.527.882.834 1.023.787c.724.566 1.542 1.243 2.644 1.888 2.046 1.417 4.831 2.707 8.136 3.777 3.337 1.102 7.24 1.653 11.662 1.417 1.228 0 2.203-.205 3.29-.33 1.07-.095 2.187-.441 3.32-.693a34.624 34.624 0 0 0 6.767-2.55A34.309 34.309 0 0 0 131.726 96.4c.158-.724.158-1.448.22-2.172.032-.692.111-1.542.127-2.108l-.079-2.314-.047-1.165-.158-1.07-.283-2.14q-.22-1.086-.488-2.156c-.283-1.464-.881-2.833-1.337-4.25a34.624 34.624 0 0 0-4.328-7.79c-.819-1.243-1.889-2.298-2.833-3.43-.504-.551-1.086-1.024-1.606-1.543-.55-.504-1.07-1.039-1.668-1.464a34.624 34.624 0 0 0-15.628-7.24 36.197 36.197 0 0 0-16.257.725c-5.036 1.416-9.443 3.966-12.968 6.925a36.197 36.197 0 0 0-8.09 9.553q-.676 1.259-1.258 2.423-.614 1.196-1.008 2.33-.456 1.148-.818 2.203l-.567 2.061c-.425 1.29-.519 2.519-.724 3.541-.22 1.04-.267 1.936-.314 2.676l-.126 2.219.078-2.235c.032-.724.048-1.637.22-2.675.158-1.055.237-2.267.63-3.589l.488-2.093c.205-.74.504-1.463.756-2.25q.377-1.18.944-2.392c.41-.787.74-1.669 1.212-2.503a36.197 36.197 0 0 1 7.947-10.025 36.67 36.67 0 0 1 30.217-8.86c5.934.834 11.804 3.383 16.872 7.192.66.44 1.227.991 1.84 1.51q.914.788 1.764 1.622c1.085 1.164 2.25 2.282 3.179 3.604 2.046 2.486 3.62 5.35 4.973 8.31.55 1.51 1.243 2.99 1.605 4.595l.63 2.36.409 2.456.189 1.227.078 1.15.158 2.313c.015.975-.047 1.652-.063 2.502-.047.803-.016 1.621-.158 2.408a37.771 37.771 0 0 1-6.562 17.595 39.345 39.345 0 0 1-13.126 11.882c-2.518 1.338-5.083 2.455-7.68 3.18-1.306.346-2.55.755-3.903.944-1.306.188-2.675.472-3.793.487a38.243 38.243 0 0 1-23.245-5.382c-1.29-.692-2.392-1.527-3.352-2.235l-1.322-.991-.913-.787-1.668-1.495z"/><path fill="#130912" d="m85.33 104.347 1.417 1.353.488.394q.52.44 1.354.976 1.636 1.164 4.249 2.046c1.778.598 3.793.928 6.2.834.725 0 1.15-.11 1.732-.158.55-.031 1.164-.236 1.762-.346q1.81-.44 3.62-1.322a18.57 18.57 0 0 0 9.962-13.692c.126-.74.158-1.637.22-2.282l-.03-1.306v-.645l-.095-.567a18.886 18.886 0 0 0-1.102-4.643 19.28 19.28 0 0 0-23.166-11.662 19.987 19.987 0 0 0-14.715 18.886l.031-1.275q0-1.259.425-3.557a20.774 20.774 0 0 1 13.85-15.454 21.404 21.404 0 0 1 19.562 3.179 22.033 22.033 0 0 1 6.956 8.656c.315.897.74 1.747.96 2.675l.378 1.37.267 1.463.126.724.048.66.11 1.307c.015.63-.016.992-.016 1.495-.031.472 0 .945-.079 1.417a22.033 22.033 0 0 1-3.73 10.387 23.135 23.135 0 0 1-12.197 9.065c-.786.204-1.495.472-2.329.582-.77.126-1.668.315-2.266.315a22.82 22.82 0 0 1-15.927-4.375l-.803-.583-.535-.456-.944-.818z"/><path fill="#130912" d="m100.03 94.306-48.426 48.426-4.454-4.454 48.426-48.426z"/><path fill="#fff" d="M227.336 146.4h-20.66l46.87-110.02h.24l46.87 110.02h-21.37l-7.91-18.89h-36.13zm19.6-46.75-4.6 10.86h21.95l-4.6-10.86q-1.89-4.36-3.48-8.44-1.6-4.07-3.01-9.5-1.3 5.31-2.84 9.44-1.53 4.14-3.42 8.5m89.13 46.75h-21.96V40.15h21.96zm40.73 0h-13.46V40.15h26.68q10.04 0 17.24 4.02 7.2 4.01 11.16 10.56 3.95 6.56 3.95 14.35 0 8.73-4.96 15.7-4.96 6.96-13.57 10.27l35.65 51.35h-15.7l-33.77-48.87h-13.22zm0-94.2v34h13.22q6.85 0 11.16-2.54 4.31-2.54 6.37-6.5 2.07-3.95 2.07-8.08 0-7.44-5.37-12.16t-14.23-4.72zm105.07 95.15q-9.68 0-17.71-4.9-8.03-4.9-12.81-13.16-4.78-8.27-4.78-18.3 0-10.04 4.78-18.3 4.78-8.27 12.81-13.16 8.03-4.9 17.71-4.9 7.32 0 13.75 2.71 6.44 2.72 11.16 7.56v-9.33h11.81v70.83h-11.81v-9.32q-4.72 4.72-11.16 7.49-6.43 2.78-13.75 2.78m1.65-11.57q6.73 0 12.22-3.37 5.49-3.36 8.74-8.97 3.25-5.61 3.25-12.45 0-6.85-3.25-12.46-3.25-5.61-8.74-8.97-5.49-3.36-12.22-3.36t-12.22 3.36q-5.48 3.36-8.73 8.97-3.25 5.61-3.25 12.46 0 6.84 3.25 12.45 3.25 5.61 8.73 8.97 5.49 3.37 12.22 3.37m88.07 11.57q-9.68 0-17.71-4.9-8.02-4.9-12.8-13.16-4.79-8.27-4.79-18.3 0-10.04 4.79-18.3 4.78-8.27 12.8-13.16 8.03-4.9 17.71-4.9 6.97 0 13.11 2.48 6.14 2.47 10.86 6.84V33.07h12.75V146.4h-11.81v-9.32q-4.72 4.72-11.15 7.49-6.44 2.78-13.76 2.78m1.66-11.57q6.73 0 12.21-3.37 5.49-3.36 8.74-8.97 3.25-5.61 3.25-12.45 0-6.85-3.25-12.46-3.25-5.61-8.74-8.97-5.48-3.36-12.21-3.36t-12.22 3.36q-5.49 3.36-8.74 8.97-3.25 5.61-3.25 12.46 0 6.84 3.25 12.45 3.25 5.61 8.74 8.97 5.49 3.37 12.22 3.37m88.07 11.57q-9.69 0-17.71-4.9-8.03-4.9-12.81-13.16-4.78-8.27-4.78-18.3 0-10.04 4.78-18.3 4.78-8.27 12.81-13.16 8.02-4.9 17.71-4.9 7.31 0 13.75 2.71 6.43 2.72 11.16 7.56v-9.33h11.8v70.83h-11.8v-9.32q-4.73 4.72-11.16 7.49-6.44 2.78-13.75 2.78m1.65-11.57q6.73 0 12.22-3.37 5.49-3.36 8.73-8.97 3.25-5.61 3.25-12.45 0-6.85-3.25-12.46-3.24-5.61-8.73-8.97-5.49-3.36-12.22-3.36t-12.22 3.36q-5.49 3.36-8.74 8.97-3.24 5.61-3.24 12.46 0 6.84 3.24 12.45 3.25 5.61 8.74 8.97 5.49 3.37 12.22 3.37m70.48 10.62h-12.75V75.57h11.8v12.99q3.78-6.26 10.04-9.98 6.25-3.72 14.87-3.72l3.19 12.75q-2.24-.71-5.19-.71-9.92 0-15.94 6.32t-6.02 18z"/></svg></svg>