<svg xmlns="http://www.w3.org/2000/svg" xmlns:xlink="http://www.w3.org/1999/xlink" width="3200" zoomAndPan="magnify" viewBox="0 0 2400 1199.999942" height="1600" preserveAspectRatio="xMidYMid meet" version="1.0"><defs><g/></defs><g fill="#0d0f13" fill-opacity="1"><g transform="translate(182.386233, 819.958116)"><g><path d="M 261.828125 -413.414062 C 272.164062 -413.414062 281.351562 -411.980469 289.390625 -409.109375 L 285.085938 -341.066406 C 272.453125 -344.511719 260.394531 -346.234375 248.910156 -346.234375 C 209.867188 -346.234375 180.4375 -333.460938 160.628906 -307.90625 C 140.820312 -282.355469 130.914062 -246.328125 130.914062 -199.816406 L 130.914062 0 L 63.734375 0 L 63.734375 -313.507812 C 63.734375 -321.546875 62.585938 -351.402344 60.289062 -403.078125 L 124.023438 -403.078125 C 125.171875 -362.886719 125.746094 -340.78125 125.746094 -336.761719 L 127.46875 -336.761719 C 138.378906 -359.730469 156.035156 -378.246094 180.4375 -392.3125 C 204.839844 -406.382812 231.972656 -413.414062 261.828125 -413.414062 Z M 261.828125 -413.414062 "/></g></g></g><g fill="#0d0f13" fill-opacity="1"><g transform="translate(474.360188, 819.958116)"><g><path d="M 218.765625 -413.414062 C 277.332031 -413.414062 319.964844 -399.632812 346.664062 -372.074219 C 373.367188 -344.511719 387.003906 -302.882812 387.578125 -247.1875 L 387.578125 -66.320312 C 387.578125 -49.09375 389.585938 -26.988281 393.605469 0 L 329.007812 0 C 326.136719 -5.167969 324.703125 -25.265625 324.703125 -60.289062 L 322.980469 -60.289062 C 292.546875 -14.355469 248.335938 9.1875 190.34375 10.335938 C 146.128906 10.335938 110.101562 -0.71875 82.253906 -22.824219 C 54.402344 -44.929688 40.480469 -73.78125 40.480469 -109.382812 C 40.480469 -158.1875 60.578125 -193.933594 100.769531 -216.613281 C 140.964844 -239.292969 203.835938 -250.632812 289.390625 -250.632812 L 320.398438 -250.632812 L 320.398438 -261.828125 C 320.398438 -320.398438 287.09375 -350.253906 220.488281 -351.402344 C 172.257812 -351.402344 132.351562 -336.761719 100.769531 -307.476562 L 58.566406 -351.402344 C 99.910156 -391.597656 153.308594 -412.265625 218.765625 -413.414062 Z M 112.828125 -116.273438 C 112.828125 -70.914062 142.398438 -47.65625 201.539062 -46.507812 C 236.566406 -46.507812 265.132812 -57.707031 287.238281 -80.097656 C 309.34375 -102.492188 320.398438 -135.222656 320.398438 -178.285156 L 320.398438 -193.789062 L 246.328125 -193.789062 C 206.707031 -193.789062 174.695312 -187.472656 150.292969 -174.839844 C 125.890625 -162.207031 113.402344 -142.6875 112.828125 -116.273438 Z M 112.828125 -116.273438 "/></g></g></g><g fill="#0d0f13" fill-opacity="1"><g transform="translate(910.167819, 819.958116)"><g><path d="M 165.367188 -517.628906 L 165.367188 -403.078125 L 284.222656 -403.078125 L 284.222656 -346.234375 L 165.367188 -346.234375 L 165.367188 -130.914062 C 165.367188 -98.761719 170.535156 -77.515625 180.871094 -67.179688 C 191.203125 -56.84375 206.132812 -51.675781 225.65625 -51.675781 C 248.050781 -51.675781 267.859375 -56.269531 285.085938 -65.457031 L 287.667969 -4.304688 C 264.699219 5.453125 238.574219 10.335938 209.292969 10.335938 C 167.949219 10.335938 139.097656 0.144531 122.734375 -20.238281 C 106.367188 -40.625 98.1875 -74.070312 98.1875 -120.578125 L 98.1875 -346.234375 L 10.335938 -346.234375 L 10.335938 -403.078125 L 98.1875 -403.078125 L 98.1875 -517.628906 Z M 165.367188 -517.628906 "/></g></g></g><g fill="#0d0f13" fill-opacity="1"><g transform="translate(1202.141744, 819.958116)"><g><path d="M 247.1875 -413.414062 C 306.902344 -413.414062 353.554688 -394.609375 387.144531 -357 C 420.734375 -319.390625 437.816406 -266.136719 438.390625 -197.234375 L 438.390625 -180.871094 L 112.828125 -180.871094 C 116.273438 -143.546875 130.339844 -112.828125 155.03125 -88.710938 C 179.722656 -64.597656 209.867188 -52.25 245.464844 -51.675781 C 300.011719 -51.675781 342.503906 -72.0625 372.933594 -112.828125 L 423.75 -73.207031 C 402.503906 -45.648438 377.527344 -24.832031 348.820312 -10.765625 C 320.109375 3.300781 285.660156 10.335938 245.464844 10.335938 C 184.027344 10.335938 134.648438 -9.617188 97.324219 -49.523438 C 60.003906 -89.429688 41.054688 -140.101562 40.480469 -201.539062 C 40.480469 -262.402344 59.570312 -312.644531 97.753906 -352.265625 C 135.9375 -391.882812 185.75 -412.265625 247.1875 -413.414062 Z M 366.042969 -237.714844 C 364.320312 -272.738281 352.980469 -300.445312 332.023438 -320.828125 C 311.066406 -341.210938 281.640625 -351.402344 243.742188 -351.402344 C 209.292969 -351.402344 180.296875 -341.640625 156.753906 -322.121094 C 133.210938 -302.597656 118.570312 -274.460938 112.828125 -237.714844 Z M 366.042969 -237.714844 "/></g></g></g><g fill="#4338ca" fill-opacity="1"><g transform="translate(1669.827621, 819.958116)"><g><path d="M 111.105469 -615.816406 C 130.054688 -615.816406 145.988281 -609.929688 158.90625 -598.160156 C 171.824219 -586.390625 178.285156 -571.605469 178.285156 -553.804688 C 178.285156 -535.429688 171.683594 -520.5 158.476562 -509.015625 C 145.269531 -497.535156 129.480469 -491.792969 111.105469 -491.792969 C 92.730469 -491.792969 77.226562 -497.964844 64.597656 -510.308594 C 51.964844 -522.65625 45.648438 -537.152344 45.648438 -553.804688 C 45.648438 -570.457031 51.964844 -584.953125 64.597656 -597.296875 C 77.226562 -609.644531 92.730469 -615.816406 111.105469 -615.816406 Z M 163.644531 -413.414062 L 163.644531 0 L 60.289062 0 L 60.289062 -413.414062 Z M 163.644531 -413.414062 "/></g></g></g><g fill="#4338ca" fill-opacity="1"><g transform="translate(1882.563658, 819.958116)"><g><path d="M 198.957031 -533.132812 L 198.957031 -413.414062 L 312.644531 -413.414062 L 312.644531 -325.566406 L 198.957031 -325.566406 L 198.957031 -142.113281 C 198.957031 -99.046875 218.191406 -77.515625 256.660156 -77.515625 C 282.5 -77.515625 301.160156 -81.820312 312.644531 -90.433594 L 312.644531 -3.445312 C 293.121094 5.742188 265.847656 10.335938 230.824219 10.335938 C 183.164062 10.335938 148.714844 -0.144531 127.46875 -21.101562 C 106.226562 -42.058594 95.601562 -78.949219 95.601562 -131.777344 L 95.601562 -325.566406 L 10.335938 -325.566406 L 10.335938 -413.414062 L 95.601562 -413.414062 L 95.601562 -533.132812 Z M 198.957031 -533.132812 "/></g></g></g></svg>